<svg xmlns="http://www.w3.org/2000/svg" width="202" height="195" viewBox="0 0 202 195" fill="none">
  <path
    d="M200.921 119.473C199.26 79.67 169.827 35.7235 151.998 34.8959C134.168 34.0683 125.256 63.7094 124.22 62.6735L101.337 62.657C101.337 62.657 78.8596 62.5639 77.7853 62.6735C76.3274 62.816 67.8373 34.0683 50.0077 34.8959C32.1781 35.7235 2.74524 79.67 1.08451 119.473C-0.57623 159.276 22.6412 163.836 35.4941 156.787C48.347 149.739 50.9998 141.863 50.9998 141.863C50.9998 141.863 67.4208 146.839 74.8804 130.254H127.12C134.585 146.839 151 141.863 151 141.863C151 141.863 153.653 149.739 166.506 156.787C179.359 163.836 202.576 159.276 200.915 119.473H200.921Z"
    stroke="black" stroke-miterlimit="10" />
  <path d="M79.1729 48.9816H122.845" stroke="black" stroke-miterlimit="10" />
  <path
    d="M68.0436 83.6103H50.4278V65.9944H40.8909V83.6103H23.2695V93.1472H40.8909V110.769H50.4278V93.1472H68.0436V83.6103Z"
    stroke="black" stroke-miterlimit="10" />
  <path d="M176.628 93.1479V83.611H165.48V93.1479H176.628Z" stroke="black" stroke-miterlimit="10" />
  <path d="M159.763 93.1479V83.611H148.615V93.1479H159.763Z" stroke="black" stroke-miterlimit="10" />
  <path d="M142.894 93.1479V83.611H131.745V93.1479H142.894Z" stroke="black" stroke-miterlimit="10" />
  <path d="M149.416 110.824H158.953V99.6755H149.416V110.824Z" stroke="black" stroke-miterlimit="10" />
  <path d="M149.416 77.0881H158.953V65.9398H149.416V77.0881Z" stroke="black" stroke-miterlimit="10" />
  <path
    d="M58.6129 135.258C62.9477 135.258 66.4617 131.744 66.4617 127.409C66.4617 123.074 62.9477 119.56 58.6129 119.56C54.2782 119.56 50.7642 123.074 50.7642 127.409C50.7642 131.744 54.2782 135.258 58.6129 135.258Z"
    stroke="black" stroke-miterlimit="10" />
  <path
    d="M142.893 135.258C147.227 135.258 150.741 131.744 150.741 127.409C150.741 123.074 147.227 119.56 142.893 119.56C138.558 119.56 135.044 123.074 135.044 127.409C135.044 131.744 138.558 135.258 142.893 135.258Z"
    stroke="black" stroke-miterlimit="10" />
  <path
    d="M112.646 110.77H86.6116C84.1839 110.77 82.2158 112.738 82.2158 115.166C82.2158 117.593 84.1839 119.561 86.6116 119.561H112.646C115.074 119.561 117.042 117.593 117.042 115.166C117.042 112.738 115.074 110.77 112.646 110.77Z"
    stroke="black" stroke-miterlimit="10" />
</svg>