<svg xmlns="http://www.w3.org/2000/svg" width="200" height="195" viewBox="0 0 200 195" fill="none">
  <path d="M127.203 24.0245L127.203 46.4297" stroke="black" stroke-miterlimit="10" />
  <path d="M75.104 17.5394V31.0946" stroke="black" stroke-miterlimit="10" />
  <path d="M182.357 97.5695H168.802" stroke="black" stroke-miterlimit="10" />
  <path d="M100.441 27.7593L100.441 45.1855" stroke="black" stroke-miterlimit="10" />
  <path
    d="M100.28 19.0831C105.189 19.0831 109.168 15.1041 109.168 10.1957C109.168 5.28737 105.189 1.30835 100.28 1.30835C95.3721 1.30835 91.3931 5.28737 91.3931 10.1957C91.3931 15.1041 95.3721 19.0831 100.28 19.0831Z"
    stroke="black" stroke-miterlimit="10" />
  <path d="M169.523 70.7028L151.475 70.7028" stroke="black" stroke-miterlimit="10" />
  <path
    d="M187.539 79.6766C192.448 79.6766 196.427 75.6976 196.427 70.7893C196.427 65.8809 192.448 61.9019 187.539 61.9019C182.631 61.9019 178.652 65.8809 178.652 70.7893C178.652 75.6976 182.631 79.6766 187.539 79.6766Z"
    stroke="black" stroke-miterlimit="10" />
  <path d="M100.442 166.546L100.442 148.497" stroke="black" stroke-miterlimit="10" />
  <path
    d="M100.28 193.139C105.189 193.139 109.168 189.16 109.168 184.252C109.168 179.344 105.189 175.365 100.28 175.365C95.3721 175.365 91.3931 179.344 91.3931 184.252C91.3931 189.16 95.3721 193.139 100.28 193.139Z"
    stroke="black" stroke-miterlimit="10" />
  <path d="M170.146 124.226L151.475 124.226" stroke="black" stroke-miterlimit="10" />
  <path
    d="M178.773 133.238C183.682 133.238 187.661 129.259 187.661 124.35C187.661 119.442 183.682 115.463 178.773 115.463C173.865 115.463 169.886 119.442 169.886 124.35C169.886 129.259 173.865 133.238 178.773 133.238Z"
    stroke="black" stroke-miterlimit="10" />
  <path d="M44.2348 97.5695H25.3584" stroke="black" stroke-miterlimit="10" />
  <path d="M30.7363 70.7028H48.785" stroke="black" stroke-miterlimit="10" />
  <path
    d="M13.173 79.6766C18.0814 79.6766 22.0604 75.6976 22.0604 70.7893C22.0604 65.8809 18.0814 61.9019 13.173 61.9019C8.26467 61.9019 4.28564 65.8809 4.28564 70.7893C4.28564 75.6976 8.26467 79.6766 13.173 79.6766Z"
    stroke="black" stroke-miterlimit="10" />
  <path d="M24.5117 124.226H48.784" stroke="black" stroke-miterlimit="10" />
  <path
    d="M15.3869 133.238C20.2953 133.238 24.2743 129.259 24.2743 124.35C24.2743 119.442 20.2953 115.463 15.3869 115.463C10.4785 115.463 6.49951 119.442 6.49951 124.35C6.49951 129.259 10.4785 133.238 15.3869 133.238Z"
    stroke="black" stroke-miterlimit="10" />
  <path d="M74.9243 175.26L74.9243 148.498" stroke="black" stroke-miterlimit="10" />
  <path d="M127.278 153.614V171.731" stroke="black" stroke-miterlimit="10" />
  <path d="M151.475 115.516V148.498H48.7847V46.4296H125.801H151.475V102.442" stroke="black" stroke-miterlimit="10" />
  <path d="M98.196 58.2545H139.65V137.295H60.6099V58.2545H85.1591" stroke="black" stroke-miterlimit="10" />
</svg>