<svg xmlns="http://www.w3.org/2000/svg" width="201" height="195" viewBox="0 0 201 195" fill="none">
  <path d="M1 95.7924V144.587L43.258 168.984L85.5095 144.587V95.7924L43.258 71.3954L1 95.7924Z" stroke="black"
    stroke-miterlimit="10" />
  <path d="M1 95.7919L43.258 120.189V168.983" stroke="black" stroke-miterlimit="10" />
  <path d="M85.5098 95.7919L43.2583 120.189" stroke="black" stroke-miterlimit="10" />
  <path d="M115.775 95.7924V144.587L158.033 168.984L200.284 144.587V95.7924L158.033 71.3954L115.775 95.7924Z"
    stroke="black" stroke-miterlimit="10" />
  <path d="M115.775 95.7919L158.033 120.189V168.983" stroke="black" stroke-miterlimit="10" />
  <path d="M200.285 95.7919L158.033 120.189" stroke="black" stroke-miterlimit="10" />
  <path d="M142.897 75.1997V49.2754L100.645 24.8784L58.3872 49.2754V75.1997" stroke="black" stroke-miterlimit="10" />
  <path d="M88.9897 115.737L100.645 122.46L111.038 116.461" stroke="black" stroke-miterlimit="10" />
  <path d="M58.3872 49.2749L100.645 73.6719V122.46" stroke="black" stroke-miterlimit="10" />
  <path d="M142.897 49.2749L100.646 73.6719" stroke="black" stroke-miterlimit="10" />
</svg>